# AST/ASF file generated using VICON BodyLanguage
# -----------------------------------------------
:version 1.10
:name VICON
:units
  mass 1.0
  length 0.45
  angle deg
:documentation
   .ast/.asf automatically generated from VICON data using
   VICON BodyBuilder and BodyLanguage model FoxedUp or BRILLIANT.MOD
:root
   order TX TY TZ RX RY RZ
   axis XYZ
   position 0 0 0  
   orientation 0 0 0 
:bonedata
  begin
     id 1 
     name lhipjoint
     direction 0.612567 -0.751349 0.245431 
     length 2.42285 
     axis 0 0 0  XYZ
  end
  begin
     id 2 
     name lfemur
     direction 0.34202 -0.939693 0  
     length 7.11304  
     axis 0 0 20  XYZ
    dof rx ry rz
    limits (-160.0 20.0)
           (-70.0 70.0)
           (-60.0 70.0)
  end
  begin
     id 3 
     name ltibia
     direction 0.34202 -0.939693 0   
     length 7.84529   
     axis 0 0 20   XYZ
    dof rx
    limits (-10.0 170.0)
  end
  begin
     id 4 
     name lfoot
     direction 0.0779239 -0.214094 0.9737   
     length 1.97176   
     axis -90 7.62852e-016 20   XYZ
    dof rx rz
    limits (-45.0 90.0)
           (-70.0 20.0)
  end
  begin
     id 5 
     name ltoes
     direction 1.53565e-011 -4.21709e-011 1   
     length 0.993197   
     axis -90 7.62852e-016 20   XYZ
    dof rx
    limits (-90.0 20.0)
  end
  begin
     id 6 
     name rhipjoint
     direction -0.665722 -0.709315 0.231701   
     length 2.56642  
     axis 0 0 0  XYZ 
  end
  begin
     id 7 
     name rfemur
     direction -0.34202 -0.939693 0   
     length 7.32108   
     axis 0 0 -20   XYZ
    dof rx ry rz
    limits (-160.0 20.0)
           (-70.0 70.0)
           (-70.0 60.0)
  end
  begin
     id 8 
     name rtibia
     direction -0.34202 -0.939693 0   
     length 7.81254   
     axis 0 0 -20   XYZ
    dof rx
    limits (-10.0 170.0)
 end
 begin
     id 9 
     name rfoot
     direction -0.0832806 -0.228812 0.969902   
     length 2.08278  
     axis -90 -7.62852e-016 -20   XYZ
    dof rx rz
    limits (-45.0 90.0)
           (-20.0 70.0)
  end
  begin
     id 10 
     name rtoes
     direction -1.53589e-011 -4.22086e-011 1   
     length 1.04609   
     axis -90 -7.62852e-016 -20   XYZ
    dof rx
    limits (-90.0 20.0)
  end
  begin
     id 11 
     name lowerback
     direction -0.00506013 0.988403 -0.151766   
     length 2.01978   
     axis 0 0 0   XYZ
    dof rx ry rz
    limits (-20.0 45.0)
           (-30.0 30.0)
           (-30.0 30.0)
  end
  begin
     id 12 
     name upperback
     direction -0.00836389 0.99968 0.0238859   
     length 2.01276   
     axis 0 0 0   XYZ
    dof rx ry rz
    limits (-20.0 45.0)
           (-30.0 30.0)
           (-30.0 30.0)
  end
  begin
     id 13 
     name thorax
     direction -0.00684136 0.995386 0.0957043   
     length 2.07303   
     axis 0 0 0   XYZ
    dof rx ry rz
    limits (-20.0 45.0)
           (-30.0 30.0)
           (-30.0 30.0)
  end
  begin
     id 14 
     name lowerneck
     direction -0.0161045 0.999661 0.0204485   
     length 1.91243   
     axis 0 0 0   XYZ
    dof rx ry rz
    limits (-20.0 45.0)
           (-30.0 30.0)
           (-30.0 30.0)
  end
  begin
     id 15 
     name upperneck
     direction 0.0553583 0.990946 -0.122319   
     length 1.91574   
     axis 0 0 0   XYZ
    dof rx ry rz
    limits (-20.0 45.0)
           (-30.0 30.0)
           (-30.0 30.0)
  end
  begin
     id 16
     name head
     direction 0.0180273 0.998839 -0.0446756  
     length 1.92693  
     axis 0 0 0   XYZ
    dof rx ry rz
    limits (-20.0 45.0)
           (-30.0 30.0)
           (-30.0 30.0)
  end
  begin
     id 17 
     name lclavicle
     direction 0.945646 0.319323 -0.0615358  
     length 4.0076  
     axis 0 0 0   XYZ
    dof ry rz
    limits (-20.0 10.0)
           (0.0 20.0)
  end
  begin
     id 18 
     name lhumerus
     direction 1 -4.48967e-011 -2.79996e-027   
     length 5.64147   
     axis 180 -30 -90   XYZ
    dof rx ry rz
    limits (-60.0 90.0)
           (-90.0 90.0)
           (-90.0 90.0)
  end
  begin
     id 19
     name lradius
     direction 1 -4.48976e-011 -9.5122e-027   
     length 2.86444   
     axis 180 -30 -90   XYZ
    dof rx
    limits (-10.0 170.0)
  end
  begin
     id 20
     name lwrist
     direction 1 -4.48983e-011 -1.24047e-026   
     length 1.43222   
     axis 9.05591e-015 90 90   XYZ
    dof ry
    limits (-180.0 0.0)
 end
  begin
     id 21 
     name lhand
     direction 1 -4.4892e-011 -2.48094e-026   
     length 0.722123   
     axis 1.58305e-014 90 90   XYZ
    dof rx rz
    limits (-90.0 90.0)
           (-45.0 45.0)
  end
  begin
     id 22 
     name lfingers
     direction 1 -4.48895e-011 -4.96187e-026   
     length 0.582194   
     axis 3.1661e-014 90 90   XYZ
    dof rx
    limits (0.0 90.0)
  end
  begin
     id 23
     name lthumb
     direction 0.707107 -6.34961e-011 0.707107   
     length 0.835918   
     axis -90 45 2.85299e-015   XYZ
    dof rx rz
    limits (-45.0 45.0)
           (-45.0 45.0)
  end
  begin
     id 24 
     name rclavicle
     direction -0.932635 0.324218 -0.15835   
     length 3.65819  
     axis 0 0 0   XYZ 
    dof ry rz
    limits (-10.0 20.0)
           (-20.0 0.0)
  end
  begin
     id 25 
     name rhumerus
     direction -1 -4.48965e-011 -4.02296e-027  
     length 5.44729   
     axis 180 30 90   XYZ
    dof rx ry rz
    limits (-90.0 60.0)
           (-90.0 90.0)
           (-90.0 90.0)
  end
  begin
     id 26 
     name rradius
     direction -1 -4.48957e-011 -8.81087e-027   
     length 3.08821   
     axis 180 30 90   XYZ
    dof rx
    limits (-10.0 170.0)
  end
  begin
     id 27 
     name rwrist
     direction -1 -4.49015e-011 -1.24047e-026   
     length 1.5441   
     axis 9.05591e-015 -90 -90   XYZ
    dof ry
    limits (-180.0 0.0)
  end
  begin
     id 28
     name rhand
     direction -1 -4.4891e-011 -2.48094e-026   
     length 0.821049   
     axis 1.58305e-014 -90 -90   XYZ
    dof rx rz
    limits (-90.0 90.0)
           (-45.0 45.0)
  end
  begin
     id 29
     name rfingers
     direction -1 -4.48985e-011 -4.96187e-026   
     length 0.661951   
     axis 3.1661e-014 -90 -90   XYZ
    dof rx
    limits (0.0 90.0)
  end
  begin
     id 30
     name rthumb
     direction -0.707107 -6.34906e-011 0.707107   
     length 0.950433   
     axis -90 -45 -2.85299e-015   XYZ
    dof rx rz
    limits (-45.0 45.0)
           (-45.0 45.0)
  end
:hierarchy
  begin
    root lhipjoint rhipjoint lowerback
    lhipjoint lfemur
    lfemur ltibia
    ltibia lfoot
    lfoot ltoes
    rhipjoint rfemur
    rfemur rtibia
    rtibia rfoot
    rfoot rtoes
    lowerback upperback
    upperback thorax
    thorax lowerneck lclavicle rclavicle
    lowerneck upperneck
    upperneck head
    lclavicle lhumerus
    lhumerus lradius
    lradius lwrist
    lwrist lhand lthumb
    lhand lfingers
    rclavicle rhumerus
    rhumerus rradius
    rradius rwrist
    rwrist rhand rthumb
    rhand rfingers
  end

#!OML:ASF F:\VICON\USERDATA\INSTALL\rory3\rory3.ASF
:FULLY-SPECIFIED
:DEGREES
3658
root 2.81841 17.6156 -0.105342 899.498 76.6963 897.522
lowerback 19.2914 -0.229466 4.79579
upperback 0.982394 0.72294 -1.30889
thorax -9.69659 0.141874 -4.38054
lowerneck -12.8138 -1.18174 -3.79627
upperneck 19.3999 -0.799318 1.10983
head 8.14995 -0.451594 0.929121
rclavicle -6.34869e-015 2.34069e-014
rhumerus -44.0925 22.0756 -80.8429
rradius 106.391
rwrist 27.2982
rhand -18.2629 14.5872
rfingers 7.12502
rthumb 8.01657 -15.2408
lclavicle -6.34869e-015 2.34069e-014
lhumerus 43.1778 -3.07348 52.9863
lradius 112.575
lwrist 72.3324
lhand 8.56046 19.9186
lfingers 7.12502
lthumb 33.7597 46.7554
rfemur -6.21571 -5.25884 17.9502
rtibia 23.5021
rfoot -26.6534 -12.3145
rtoes 0.145705
lfemur -11.8095 -2.80297 -17.7644
ltibia 19.5917
lfoot -7.14265 -11.93
ltoes 1.01792
3659
root 2.81866 17.6174 -0.0999703 899.546 76.6473 897.538
lowerback 19.182 -0.171259 4.72307
upperback 0.959826 0.772045 -1.36117
thorax -9.65543 0.167326 -4.4073
lowerneck -12.9504 -1.1414 -3.78644
upperneck 19.7854 -0.734745 1.15088
head 8.30235 -0.414139 0.950223
rclavicle -8.51047e-015 -2.13694e-014
rhumerus -44.3346 22.301 -81.0479
rradius 105.669
rwrist 27.3797
rhand -18.1321 14.6034
rfingers 7.12502
rthumb 8.14284 -15.2197
lclavicle -8.51047e-015 -2.13694e-014
lhumerus 44.1235 -2.69969 52.5781
lradius 112.274
lwrist 72.9213
lhand 8.83262 20.128
lfingers 7.12502
lthumb 34.0183 46.9077
rfemur -6.18059 -5.24503 17.9847
rtibia 23.3793
rfoot -26.5891 -12.4427
rtoes 0.105924
lfemur -11.8462 -2.82981 -17.7391
ltibia 19.5693
lfoot -7.13039 -11.9489
ltoes 1.0211
3660
root 2.82002 17.6182 -0.0959562 899.942 76.4403 897.892
lowerback 19.0323 -0.183727 4.76268
upperback 0.932378 0.753926 -1.37426
thorax -9.60393 0.156836 -4.43628
lowerneck -12.9939 -1.08487 -3.80635
upperneck 20.0451 -0.651454 1.20767
head 8.39572 -0.368575 0.983413
rclavicle -2.83827e-014 9.7653e-015
rhumerus -44.5703 22.5671 -81.2178
rradius 104.973
rwrist 27.593
rhand -17.8993 14.6972
rfingers 7.12502
rthumb 8.36748 -15.1171
lclavicle -2.83827e-014 9.7653e-015
lhumerus 45.0095 -2.31898 52.139
lradius 111.982
lwrist 73.3184
lhand 9.1288 20.1933
lfingers 7.12502
lthumb 34.2996 46.9101
rfemur -6.12384 -5.27073 18.1045
rtibia 23.2529
rfoot -26.6245 -12.6268
rtoes -0.0947318
lfemur -11.9241 -2.95874 -17.6364
ltibia 19.536
lfoot -7.06221 -12.0208
ltoes 0.953296
3661
root 2.82248 17.6201 -0.0960784 900.16 75.9543 898.065
lowerback 18.7987 -0.307524 4.86717
upperback 0.949031 0.599282 -1.38534
thorax -9.47163 0.0827604 -4.46162
lowerneck -13.0946 -1.05023 -3.82731
upperneck 20.2957 -0.571959 1.15062
head 8.49687 -0.336962 0.978166
rclavicle 9.6659e-015 1.40143e-014
rhumerus -44.7683 22.848 -81.3331
rradius 104.301
rwrist 27.7621
rhand -17.6035 15.0169
rfingers 7.12502
rthumb 8.65297 -14.7858
lclavicle 9.6659e-015 1.40143e-014
lhumerus 45.8475 -1.90278 51.6722
lradius 111.69
lwrist 73.4944
lhand 9.51034 20.0913
lfingers 7.12502
lthumb 34.6618 46.7256
rfemur -6.02922 -5.46678 18.1693
rtibia 23.1467
rfoot -26.8221 -12.7728
rtoes -0.0145539
lfemur -12.029 -3.21518 -17.5959
ltibia 19.4884
lfoot -6.86556 -12.2164
ltoes 1.47338
3662
root 2.82174 17.6223 -0.0939537 900.157 75.6395 898.06
lowerback 18.7074 -0.37529 4.83371
upperback 0.963681 0.49933 -1.37278
thorax -9.41614 0.03915 -4.40003
lowerneck -13.2373 -1.03063 -3.87509
upperneck 20.5724 -0.490113 1.03021
head 8.61523 -0.3132 0.956509
rclavicle 7.21837e-014 1.98785e-015
rhumerus -44.9594 23.1679 -81.4324
rradius 103.65
rwrist 27.8591
rhand -17.9499 15.2362
rfingers 7.12502
rthumb 8.31868 -14.5801
lclavicle 7.21837e-014 1.98785e-015
lhumerus 46.5923 -1.44333 51.2926
lradius 111.388
lwrist 73.5081
lhand 9.88305 20.0523
lfingers 7.12502
lthumb 35.0154 46.6048
rfemur -5.94746 -5.58636 18.1921
rtibia 23.0602
rfoot -26.9416 -12.9192
rtoes 0.112963
lfemur -12.0705 -3.39961 -17.589
ltibia 19.4579
lfoot -6.74817 -12.3255
ltoes 1.7209
3663
root 2.8184 17.6207 -0.0898339 900.114 75.5507 898.059
lowerback 18.7736 -0.360854 4.72495
upperback 0.925689 0.498409 -1.371
thorax -9.49587 0.0398134 -4.33737
lowerneck -13.2535 -0.990388 -3.84247
upperneck 20.7934 -0.402837 0.91404
head 8.69118 -0.279766 0.923358
rclavicle 2.77398e-014 -3.21783e-015
rhumerus -45.2313 23.4774 -81.607
rradius 103.03
rwrist 27.9839
rhand -18.7379 15.3848
rfingers 7.12502
rthumb 7.5581 -14.4602
lclavicle 2.77398e-014 -3.21783e-015
lhumerus 47.2825 -1.05088 50.946
lradius 111.146
lwrist 73.5086
lhand 10.0134 20.1264
lfingers 7.12502
lthumb 35.139 46.6499
rfemur -5.87297 -5.56165 18.2116
rtibia 23.0202
rfoot -26.9854 -12.9859
rtoes 0.197447
lfemur -12.0431 -3.42863 -17.5781
ltibia 19.4165
lfoot -6.68796 -12.3795
ltoes 1.61923
3664
root 2.81379 17.6202 -0.0861046 900.272 75.4671 898.212
lowerback 18.8643 -0.32188 4.69302
upperback 0.790395 0.543113 -1.38757
thorax -9.69172 0.051019 -4.35314
lowerneck -13.0751 -0.964968 -3.66773
upperneck 20.9735 -0.362676 0.75345
head 8.71809 -0.26024 0.846183
rclavicle 2.10628e-014 -1.23153e-015
rhumerus -45.7346 23.6991 -81.9402
rradius 102.476
rwrist 27.9924
rhand -19.3281 15.4082
rfingers 7.12502
rthumb 6.98842 -14.4564
lclavicle 2.10628e-014 -1.23153e-015
lhumerus 47.8736 -0.871563 50.6593
lradius 110.911
lwrist 73.3329
lhand 10.2847 20.1249
lfingers 7.12502
lthumb 35.3964 46.5874
rfemur -5.87484 -5.53825 18.2729
rtibia 22.9996
rfoot -27.0684 -13.0659
rtoes 0.211753
lfemur -12.0751 -3.45719 -17.5223
ltibia 19.3717
lfoot -6.5959 -12.4633
ltoes 1.87263
3665
root 2.80798 17.62 -0.0829523 900.098 75.3067 898.055
lowerback 18.9851 -0.305323 4.61323
upperback 0.679058 0.548727 -1.41849
thorax -9.88271 0.0467794 -4.34742
lowerneck -12.9268 -0.944613 -3.52136
upperneck 21.1284 -0.319514 0.578934
head 8.7422 -0.24318 0.769045
rclavicle -4.04201e-014 2.45002e-014
rhumerus -46.2347 23.9642 -82.2743
rradius 101.968
rwrist 27.8275
rhand -19.3809 15.3769
rfingers 7.12502
rthumb 6.93752 -14.4894
lclavicle -4.04201e-014 2.45002e-014
lhumerus 48.4558 -0.691669 50.3903
lradius 110.625
lwrist 72.9782
lhand 10.8052 19.9163
lfingers 7.12502
lthumb 35.8897 46.2598
rfemur -5.84121 -5.5756 18.2463
rtibia 22.9742
rfoot -27.1163 -13.2228
rtoes 0.0703379
lfemur -12.0846 -3.54848 -17.5683
ltibia 19.3359
lfoot -6.52526 -12.4943
ltoes 1.79545
3666
root 2.80215 17.6207 -0.0834294 900.045 75.0551 898.077
lowerback 19.0676 -0.337439 4.66082
upperback 0.67142 0.519012 -1.44075
thorax -9.94015 0.0281043 -4.39341
lowerneck -12.9034 -0.922731 -3.4788
upperneck 21.2369 -0.265263 0.465952
head 8.77385 -0.224387 0.730665
rclavicle -1.24924e-014 2.52084e-014
rhumerus -46.5781 24.1614 -82.4769
rradius 101.497
rwrist 27.7085
rhand -18.9807 15.5522
rfingers 7.12502
rthumb 7.32373 -14.301
lclavicle -1.24924e-014 2.52084e-014
lhumerus 49.0726 -0.419357 50.1121
lradius 110.406
lwrist 72.7905
lhand 11.1059 19.701
lfingers 7.12502
lthumb 36.1745 45.9744
rfemur -5.7207 -5.68092 18.244
rtibia 22.9266
rfoot -27.1946 -13.3245
rtoes -0.0455597
lfemur -12.0455 -3.76452 -17.578
ltibia 19.3038
lfoot -6.42043 -12.5074
ltoes 1.98011
